Coordinates
version=1
nRows=16
nColumns=33
inDegrees=yes

Units are S.I. units (second, meters, Newtons, ...)
Angles are in degrees.

endheader
time	ground_thorax_rot_x	ground_thorax_rot_y	ground_thorax_rot_z	ground_thorax_tx	ground_thorax_ty	ground_thorax_tz	clav_prot_r	clav_elev_r	scapula_abduction_r	scapula_elevation_r	scapula_upward_rot_r	scapula_winging_r	shoulder_elv_r	plane_of_elev_r	axial_rot_r	elbow_flexion_r	pro_sup_r	wrist_flex_r	wrist_dev_r	clav_prot_l	clav_elev_l	scapula_abduction_l	scapula_elevation_l	scapula_upward_rot_l	scapula_winging_l	shoulder_elv_l	plane_of_elev_l	axial_rot_l	elbow_flexion_l	pro_sup_l	wrist_flex_l	wrist_dev_l
      2.27000000	      1.36480204	      7.42460500	      0.99459887	     -0.19069632	      1.00121914	      0.01304907	    -18.56691236	     -7.79739045	    -24.45768300	     -3.80929808	      8.28491798	      2.00972661	     64.31071316	    -51.06731617	     64.38223568	     77.15488854	     21.08925457	     43.32147649	    -24.99999983	     -3.93403542	     -2.43411308	      4.57543500	     -5.27012079	     -3.97602571	     -1.37555942	     51.76159217	    -49.70891177	    -26.86147565	     80.05797241	     27.52334714	    -16.99573495	    -24.99999983
      2.28000000	      1.34132133	      7.41772522	      1.03335728	     -0.19091302	      1.00107337	      0.01299406	    -18.57352299	     -7.80087964	    -24.46668821	     -3.81618798	      8.28437376	      2.00919622	     64.30464478	    -51.06789320	     64.37860105	     77.16334403	     21.08910731	     43.32183571	    -24.99999983	     -3.93535835	     -2.45525958	      4.57546981	     -5.25252292	     -3.98415538	     -1.37959430	     51.73977598	    -49.69187789	    -26.85985982	     80.06193379	     27.52434922	    -16.99709442	    -24.99999983
      2.29000000	      1.33266658	      7.43236352	      1.21536469	     -0.19097376	      1.00122288	      0.01302722	    -18.67847377	     -7.82241318	    -24.64400170	     -3.83644554	      8.27730644	      2.01971773	     64.28021608	    -51.15644298	     64.31230354	     77.14293287	     21.08760571	     43.31097307	    -24.99999983	     -3.98376807	     -2.51795997	      4.67289309	     -5.21991552	     -4.04389278	     -1.42464731	     51.62524162	    -49.73091742	    -26.70510911	     79.95825677	     27.53776204	    -17.03225547	    -24.99999983
      2.30000000	      1.30302568	      7.43462320	      1.27676841	     -0.19130258	      1.00107787	      0.01295117	    -18.68616921	     -7.83402192	    -24.64731377	     -3.85085533	      8.28763176	      2.01887534	     64.27979893	    -51.14195115	     64.29736158	     77.14983365	     21.08738727	     43.31175714	    -24.99999983	     -3.98731520	     -2.54444849	      4.67195439	     -5.19608457	     -4.04470579	     -1.42776112	     51.60809586	    -49.70465256	    -26.68953703	     79.95646803	     27.53982854	    -17.03833054	    -24.99999983
      2.31000000	      1.30015104	      7.43481726	      1.28352306	     -0.19132937	      1.00077560	      0.01298402	    -18.68701219	     -7.83614114	    -24.64858672	     -3.85288231	      8.28716168	      2.01890023	     64.27819899	    -51.14157144	     64.29648091	     77.15026376	     21.08745928	     43.31179414	    -24.99999983	     -3.98763562	     -2.54772966	      4.67279044	     -5.19273217	     -4.04670740	     -1.42874769	     51.60436032	    -49.70251161	    -26.68890025	     79.95581940	     27.54012895	    -17.03874543	    -24.99999983
      2.32000000	      1.27276673	      7.44635748	      1.51569949	     -0.19146624	      1.00133363	      0.01296108	    -18.84491971	     -7.90362458	    -24.89957300	     -3.92350139	      8.28583733	      2.04641834	     64.24413249	    -51.21142977	     64.14872923	     77.05619780	     21.10284705	     43.30804745	    -24.99999983	     -4.06629832	     -2.65645049	      4.82219485	     -5.12592135	     -4.13048861	     -1.50326101	     51.45345167	    -49.72007601	    -26.36496329	     79.72356347	     27.58170473	    -17.15184473	    -24.99999983
      2.33000000	      1.23928442	      7.44471598	      1.55306843	     -0.19167863	      1.00121428	      0.01284506	    -18.84694435	     -7.91695633	    -24.89965436	     -3.93565699	      8.28395165	      2.04826017	     64.23104291	    -51.19720725	     64.14529731	     77.06690197	     21.10574805	     43.31145093	    -24.99999983	     -4.06519856	     -2.68653816	      4.81880703	     -5.10365532	     -4.14592564	     -1.50576933	     51.42213728	    -49.69248565	    -26.36287752	     79.72888184	     27.58620192	    -17.15996292	    -24.99999983
      2.34000000	      1.22189687	      7.44927451	      1.61373800	     -0.19196878	      1.00115211	      0.01280795	    -18.85364218	     -7.94048090	    -24.90596938	     -3.95737690	      8.28375240	      2.05758760	     64.21049908	    -51.17921242	     64.13441663	     77.08290884	     21.10871770	     43.31611196	    -24.99999983	     -4.06763423	     -2.71775375	      4.82122979	     -5.08034994	     -4.15956152	     -1.51474023	     51.38940075	    -49.66400953	    -26.34720400	     79.73089260	     27.59145568	    -17.17401933	    -24.99999983
      2.35000000	      1.23556354	      7.87086961	      1.47847619	     -0.19232595	      1.00126917	      0.01300778	    -19.30494171	     -7.96318296	    -25.92949199	     -3.83316530	      7.79662884	      2.17044522	     64.14668756	    -50.44686987	     63.52244925	     76.94601677	     21.63562943	     43.91565937	    -24.99999983	     -3.18987723	     -2.78613699	      3.47788224	     -5.31111372	     -4.83851216	     -1.32251853	     50.76206346	    -49.24750928	    -24.77539568	     79.25412156	     29.16945307	    -20.17256382	    -24.99999983
      2.36000000	      1.20296568	      7.87201744	      1.52555144	     -0.19251467	      1.00113702	      0.01291211	    -19.31001891	     -7.97341707	    -25.93105344	     -3.84549969	      7.80445619	      2.17178307	     64.14082905	    -50.43669381	     63.51591182	     76.96155387	     21.63326040	     43.91656418	    -24.99999983	     -3.19281293	     -2.80594003	      3.47875184	     -5.29342985	     -4.83934352	     -1.32552372	     50.74433591	    -49.22734826	    -24.77541619	     79.26697620	     29.16913891	    -20.17470482	    -24.99999983
      2.37000000	      1.20002792	      7.87265226	      1.53338658	     -0.19246090	      1.00089968	      0.01293384	    -19.31047068	     -7.97565072	    -25.93103567	     -3.84790513	      7.80494763	      2.17230609	     64.13931027	    -50.43512582	     63.51503669	     76.96374744	     21.63297085	     43.91671023	    -24.99999983	     -3.19316057	     -2.80868345	      3.47888172	     -5.29026612	     -4.83966079	     -1.32655010	     50.74196374	    -49.22442232	    -24.77528412	     79.26827098	     29.16907603	    -20.17500686	    -24.99999983
      2.38000000	      1.14977307	      7.88091943	      1.64427267	     -0.19296039	      1.00101789	      0.01276337	    -19.32071282	     -7.99987015	    -25.93375238	     -3.87657298	      7.81996193	      2.17661100	     64.12222503	    -50.41290055	     63.49623772	     77.01148078	     21.62729731	     43.92143053	    -24.99999983	     -3.20223774	     -2.84934713	      3.48525563	     -5.25190481	     -4.83920240	     -1.33277835	     50.71154530	    -49.18100651	    -24.76789703	     79.29594907	     29.16688239	    -20.18170147	    -24.99999983
      2.39000000	      1.09668901	      7.89312367	      1.73585535	     -0.19274230	      1.00088982	      0.01289774	    -19.44533489	     -8.03165557	    -26.11685166	     -3.92226557	      7.84800228	      2.17607345	     64.07461170	    -50.49834553	     63.41990555	     77.21244005	     21.57397106	     43.92881212	    -24.99999983	     -3.28651831	     -2.84868338	      3.62617727	     -5.24087317	     -4.81346956	     -1.36373531	     50.68833887	    -49.22002605	    -24.57559627	     79.37451306	     29.14098557	    -20.26304879	    -24.99999983
      2.40000000	      1.06797328	      7.89899620	      1.80157766	     -0.19300449	      1.00085002	      0.01280450	    -19.44632470	     -8.04914689	    -26.11079626	     -3.94341231	      7.86135250	      2.18444900	     64.06629771	    -50.47527190	     63.40898589	     77.24195950	     21.56834203	     43.93028795	    -24.99999983	     -3.28716855	     -2.87417150	      3.62276742	     -5.21526285	     -4.80762736	     -1.36957998	     50.67447366	    -49.18415481	    -24.57075674	     79.39822689	     29.13908195	    -20.27026915	    -24.99999983
      2.41000000	      1.05251542	      7.91188648	      1.88322177	     -0.19322509	      1.00090572	      0.01278800	    -19.45290999	     -8.07495448	    -26.10739064	     -3.97092138	      7.87152440	      2.18575620	     64.05070327	    -50.45172518	     63.39344804	     77.29012998	     21.56024153	     43.93321932	    -24.99999983	     -3.29528890	     -2.89907009	      3.62569635	     -5.18841715	     -4.79894610	     -1.36791936	     50.66318587	    -49.14733802	    -24.55633958	     79.43139529	     29.13528001	    -20.28049758	    -24.99999983
      2.42000000	      0.99959904	      7.93370178	      1.88077156	     -0.19301920	      1.00057055	      0.01285092	    -19.57437479	     -8.11188156	    -26.27582411	     -4.02895690	      7.91916244	      2.18622241	     64.01576897	    -50.51119356	     63.27728690	     77.65256449	     21.45428805	     43.92860062	    -24.99999983	     -3.37112932	     -2.90603233	      3.74842302	     -5.16615003	     -4.76350902	     -1.39682272	     50.64836050	    -49.12173938	    -24.33880801	     79.66821942	     29.09024259	    -20.39839376	    -24.99999983
